<svg width="18" height="18" viewBox="0 0 18 18" fill="none" xmlns="http://www.w3.org/2000/svg">
<path d="M15.822 10.6864C15.7509 10.6664 15.6765 10.6606 15.6031 10.6694C15.5297 10.6782 15.4588 10.7014 15.3944 10.7377C15.3301 10.7739 15.2735 10.8226 15.2279 10.8807C15.1824 10.9389 15.1487 11.0055 15.129 11.0767L14.8849 11.9543C14.8513 12.0729 14.7807 12.1778 14.6834 12.2534C14.586 12.3291 14.467 12.3717 14.3438 12.375H5.9625C5.83603 12.3738 5.71368 12.3299 5.61526 12.2505C5.51684 12.1711 5.44812 12.0607 5.42025 11.9374L4.01175 5.625H6.1875C6.33668 5.625 6.47976 5.56574 6.58525 5.46025C6.69074 5.35476 6.75 5.21168 6.75 5.0625C6.75 4.91332 6.69074 4.77024 6.58525 4.66475C6.47976 4.55926 6.33668 4.5 6.1875 4.5H3.76087L3.55387 3.56963C3.47008 3.19634 3.26209 2.86253 2.96392 2.62282C2.66576 2.3831 2.29507 2.25166 1.9125 2.25H0.5625C0.413316 2.25 0.270242 2.30926 0.164752 2.41475C0.0592632 2.52024 0 2.66332 0 2.8125C0 2.96168 0.0592632 3.10476 0.164752 3.21025C0.270242 3.31574 0.413316 3.375 0.5625 3.375H1.9125C2.17125 3.375 2.39962 3.55837 2.45475 3.81262L4.32225 12.1826C4.407 12.555 4.61517 12.8878 4.91294 13.127C5.21071 13.3661 5.58059 13.4976 5.9625 13.5H14.3438C15.0795 13.5 15.7455 12.9983 15.9649 12.267L16.2124 11.3783C16.2325 11.3072 16.2384 11.2328 16.2297 11.1595C16.2209 11.0861 16.1977 11.0153 16.1614 10.9509C16.1251 10.8866 16.0764 10.8301 16.0182 10.7847C15.9599 10.7393 15.8932 10.7059 15.822 10.6864ZM7.3125 14.625C6.38212 14.625 5.625 15.3821 5.625 16.3125C5.625 17.2429 6.38212 18 7.3125 18C8.24288 18 9 17.2429 9 16.3125C9 15.3821 8.24288 14.625 7.3125 14.625ZM7.3125 16.875C7.16332 16.875 7.02024 16.8157 6.91475 16.7102C6.80926 16.6048 6.75 16.4617 6.75 16.3125C6.75 16.1633 6.80926 16.0202 6.91475 15.9148C7.02024 15.8093 7.16332 15.75 7.3125 15.75C7.46168 15.75 7.60476 15.8093 7.71025 15.9148C7.81574 16.0202 7.875 16.1633 7.875 16.3125C7.875 16.4617 7.81574 16.6048 7.71025 16.7102C7.60476 16.8157 7.46168 16.875 7.3125 16.875ZM12.9375 14.625C12.0071 14.625 11.25 15.3821 11.25 16.3125C11.25 17.2429 12.0071 18 12.9375 18C13.8679 18 14.625 17.2429 14.625 16.3125C14.625 15.3821 13.8679 14.625 12.9375 14.625ZM12.9375 16.875C12.7883 16.875 12.6452 16.8157 12.5398 16.7102C12.4343 16.6048 12.375 16.4617 12.375 16.3125C12.375 16.1633 12.4343 16.0202 12.5398 15.9148C12.6452 15.8093 12.7883 15.75 12.9375 15.75C13.0867 15.75 13.2298 15.8093 13.3352 15.9148C13.4407 16.0202 13.5 16.1633 13.5 16.3125C13.5 16.4617 13.4407 16.6048 13.3352 16.7102C13.2298 16.8157 13.0867 16.875 12.9375 16.875Z" fill="#FEFEFE"/>
<path d="M12.9375 0C10.1464 0 7.875 2.27138 7.875 5.0625C7.875 7.85362 10.1464 10.125 12.9375 10.125C15.7286 10.125 18 7.85362 18 5.0625C18 2.27138 15.7286 0 12.9375 0ZM12.9375 9C10.7663 9 9 7.23375 9 5.0625C9 2.89125 10.7663 1.125 12.9375 1.125C15.1087 1.125 16.875 2.89125 16.875 5.0625C16.875 7.23375 15.1087 9 12.9375 9Z" fill="#FEFEFE"/>
<path d="M15.1875 4.5H13.5V2.8125C13.5 2.66332 13.4407 2.52024 13.3352 2.41475C13.2298 2.30926 13.0867 2.25 12.9375 2.25C12.7883 2.25 12.6452 2.30926 12.5398 2.41475C12.4343 2.52024 12.375 2.66332 12.375 2.8125V4.5H10.6875C10.5383 4.5 10.3952 4.55926 10.2898 4.66475C10.1843 4.77024 10.125 4.91332 10.125 5.0625C10.125 5.21168 10.1843 5.35476 10.2898 5.46025C10.3952 5.56574 10.5383 5.625 10.6875 5.625H12.375V7.3125C12.375 7.46168 12.4343 7.60476 12.5398 7.71025C12.6452 7.81574 12.7883 7.875 12.9375 7.875C13.0867 7.875 13.2298 7.81574 13.3352 7.71025C13.4407 7.60476 13.5 7.46168 13.5 7.3125V5.625H15.1875C15.3367 5.625 15.4798 5.56574 15.5852 5.46025C15.6907 5.35476 15.75 5.21168 15.75 5.0625C15.75 4.91332 15.6907 4.77024 15.5852 4.66475C15.4798 4.55926 15.3367 4.5 15.1875 4.5Z" fill="#FEFEFE"/>
</svg>
