<svg width="17" height="14" viewBox="0 0 17 14" fill="none" xmlns="http://www.w3.org/2000/svg">
<path d="M0 6.7746C0 7.15429 0.282154 7.46809 0.648229 7.51775L0.75 7.5246L13.934 7.524L9.17101 12.2675C8.87749 12.5598 8.87647 13.0347 9.16873 13.3282C9.43442 13.595 9.85103 13.6201 10.1451 13.4029L10.2294 13.3305L16.2794 7.30647C16.3181 7.26795 16.3517 7.22625 16.3802 7.18222C16.3883 7.16897 16.3965 7.15541 16.4042 7.14158C16.4114 7.12972 16.4178 7.11741 16.4239 7.10497C16.4324 7.08686 16.4407 7.06815 16.4482 7.04906C16.4543 7.03434 16.4594 7.02002 16.464 7.00559C16.4696 6.9877 16.4749 6.96863 16.4796 6.94927C16.483 6.93575 16.4857 6.92274 16.4881 6.90968C16.4914 6.89025 16.4943 6.87015 16.4963 6.8498C16.498 6.83428 16.4991 6.81891 16.4997 6.80352C16.4998 6.79418 16.5 6.78441 16.5 6.7746L16.4996 6.74555C16.4991 6.73083 16.498 6.71612 16.4966 6.70145L16.5 6.7746C16.5 6.72727 16.4956 6.68097 16.4872 6.63607C16.4853 6.62535 16.483 6.61434 16.4804 6.60338C16.4751 6.5808 16.4689 6.55906 16.4618 6.53774C16.4584 6.52715 16.4543 6.51584 16.45 6.50461C16.4412 6.48204 16.4317 6.46053 16.4212 6.43957C16.4163 6.42972 16.4109 6.4194 16.4052 6.40919C16.3958 6.39253 16.3861 6.3767 16.3759 6.36127C16.3687 6.35035 16.3607 6.33898 16.3524 6.3278L16.3459 6.31915C16.3257 6.29275 16.3038 6.26774 16.2803 6.24427L16.2794 6.24357L10.2294 0.218573C9.93593 -0.0737131 9.46106 -0.0727299 9.16877 0.220769C8.90306 0.487586 8.87971 0.904299 9.09818 1.19746L9.17097 1.28143L13.932 6.024L0.75 6.0246C0.335786 6.0246 0 6.36039 0 6.7746Z" fill="#4A5F6B"/>
</svg>
