<svg width="17" height="14" viewBox="0 0 17 14" fill="none" xmlns="http://www.w3.org/2000/svg">
<path d="M16.5 6.7746C16.5 7.15429 16.2178 7.46809 15.8518 7.51775L15.75 7.5246L2.566 7.524L7.32899 12.2675C7.62251 12.5598 7.62353 13.0347 7.33127 13.3282C7.06558 13.595 6.64897 13.6201 6.35489 13.4029L6.27061 13.3305L0.220613 7.30647C0.181923 7.26795 0.148317 7.22625 0.119795 7.18222C0.111738 7.16897 0.103539 7.15541 0.0957642 7.14158C0.0886135 7.12972 0.0821514 7.11741 0.0760555 7.10497C0.0675888 7.08686 0.0593166 7.06815 0.0518055 7.04906C0.045702 7.03434 0.0406075 7.02002 0.0359592 7.00559C0.0304337 6.9877 0.0250645 6.96863 0.0204468 6.94927C0.0170135 6.93575 0.0142937 6.92274 0.0119228 6.90968C0.00858688 6.89025 0.00574875 6.87015 0.00372314 6.8498C0.00197411 6.83428 0.000921249 6.81891 0.000339508 6.80352C0.000188828 6.79418 0 6.78441 0 6.7746L0.000375748 6.74555C0.00094986 6.73083 0.00195503 6.71612 0.00339317 6.70145L0 6.7746C0 6.72727 0.00438309 6.68097 0.0127678 6.63607C0.0147114 6.62535 0.0170288 6.61434 0.0195942 6.60338C0.0249214 6.5808 0.0310783 6.55906 0.038168 6.53774C0.041647 6.52715 0.045702 6.51584 0.0500336 6.50461C0.0587978 6.48204 0.068325 6.46053 0.078804 6.43957C0.0836735 6.42972 0.0891247 6.4194 0.0948353 6.40919C0.104208 6.39253 0.113863 6.3767 0.124073 6.36127C0.131277 6.35035 0.139254 6.33898 0.147583 6.3278L0.154074 6.31915C0.17428 6.29275 0.196201 6.26774 0.219669 6.24427L0.22057 6.24357L6.27057 0.218573C6.56407 -0.0737131 7.03894 -0.0727299 7.33123 0.220769C7.59694 0.487586 7.62029 0.904299 7.40182 1.19746L7.32903 1.28143L2.568 6.024L15.75 6.0246C16.1642 6.0246 16.5 6.36039 16.5 6.7746Z" fill="#748792"/>
</svg>
