<svg width="56" height="40" viewBox="0 0 56 40" fill="none" xmlns="http://www.w3.org/2000/svg">
<path d="M6.58789 0.823242H49.4121C52.5956 0.823428 55.1766 3.4044 55.1768 6.58789V33.4121C55.1766 36.5956 52.5956 39.1766 49.4121 39.1768H6.58789C3.4044 39.1766 0.823428 36.5956 0.823242 33.4121V6.58789C0.823428 3.4044 3.4044 0.823428 6.58789 0.823242Z" fill="white"/>
<path d="M6.58789 0.823242H49.4121C52.5956 0.823428 55.1766 3.4044 55.1768 6.58789V33.4121C55.1766 36.5956 52.5956 39.1766 49.4121 39.1768H6.58789C3.4044 39.1766 0.823428 36.5956 0.823242 33.4121V6.58789C0.823428 3.4044 3.4044 0.823428 6.58789 0.823242Z" stroke="#E4E7EC" stroke-width="1.64706"/>
<path d="M27.2063 20.5876H6.58789V27.2401H27.2063V20.5876Z" fill="#80BC00"/>
<path d="M27.2083 11.5293L6.58984 11.5293V18.1818H27.2083V11.5293Z" fill="#00A0DF"/>
<path d="M44.0842 19.5735L43.962 19.5923V21.3306L43.8587 21.3024H43.8304C43.7177 21.2555 43.4358 21.1803 43.1633 21.1803C41.7069 21.1803 41.4062 22.2796 41.4062 23.2005C41.4062 24.4689 42.111 25.1924 43.3513 25.1924C43.8774 25.1924 44.2627 25.1361 44.6573 25.0139C45.0144 24.9011 45.1459 24.732 45.1459 24.3844V19.395C44.7983 19.4608 44.4318 19.5172 44.0842 19.5735ZM43.962 24.2622H43.8962C43.6707 24.3186 43.5768 24.3374 43.4076 24.3374C43.0224 24.3374 42.5526 24.1401 42.5526 23.2005C42.5526 22.7119 42.6371 22.0729 43.3606 22.0729C43.4828 22.0729 43.6237 22.0917 43.8962 22.1763L43.9526 22.1951V24.2716L43.962 24.2622Z" fill="black"/>
<path d="M47.786 21.1609C47.335 21.1609 46.8746 21.2361 46.3014 21.4146L45.9256 21.5273L46.0478 22.373L46.4142 22.2508C46.7994 22.1287 47.2692 22.0441 47.6263 22.0441C47.786 22.0441 48.2746 22.0441 48.2746 22.5703V22.8052H47.5981C46.3578 22.8052 45.7847 23.1998 45.7847 24.0455C45.7847 24.769 46.3109 25.2012 47.2035 25.2012C47.476 25.2012 47.8612 25.1542 48.1901 25.0697H48.2277L48.3404 25.0885C48.6881 25.1542 49.0451 25.2106 49.3928 25.2858V22.5139C49.3928 21.6213 48.8478 21.1609 47.786 21.1609ZM48.2934 24.2992L48.2277 24.318L48.0021 24.3744C47.7954 24.4307 47.6075 24.4589 47.4666 24.4589C47.1283 24.4589 46.9216 24.2898 46.9216 24.0079C46.9216 23.82 47.0061 23.5099 47.5605 23.5099H48.284V24.3086L48.2934 24.2992Z" fill="black"/>
<path d="M39.1606 21.1613C38.7095 21.1613 38.2491 21.2364 37.676 21.4149L37.3001 21.5277L37.4223 22.3734L37.7887 22.2512C38.1739 22.1291 38.6438 22.0445 39.0008 22.0445C39.1605 22.0445 39.6491 22.0445 39.6491 22.5707V22.8056H38.9726C37.7323 22.8056 37.1592 23.2002 37.1592 24.0459C37.1592 24.7694 37.6853 25.2016 38.578 25.2016C38.8599 25.2016 39.2357 25.1546 39.5646 25.07H39.6022L39.7149 25.0888C40.0626 25.1452 40.4196 25.211 40.7673 25.2768V22.5049C40.7673 21.6123 40.2317 21.1519 39.1606 21.1519V21.1613ZM39.6679 24.2902L39.6116 24.309L39.3861 24.3653C39.1793 24.4217 38.9914 24.4499 38.8505 24.4499C38.5122 24.4499 38.3055 24.2808 38.3055 23.9989C38.3055 23.811 38.3901 23.5009 38.9444 23.5009H39.6679V24.2996V24.2902Z" fill="black"/>
<path d="M34.9878 21.1703C34.424 21.1703 33.9542 21.3582 33.7851 21.4428L33.7381 21.4616L33.7005 21.4334C33.4656 21.2548 33.1086 21.1703 32.62 21.1703C32.1877 21.1703 31.7837 21.2267 31.3421 21.3582C30.9663 21.471 30.8159 21.6495 30.8159 21.9971V25.1636H31.9998V22.2414L32.0562 22.2227C32.3005 22.1475 32.432 22.1287 32.573 22.1287C32.9113 22.1287 33.0898 22.3072 33.0898 22.6643V25.1636H34.2549V22.6079C34.2549 22.4576 34.2267 22.3636 34.2173 22.3542L34.1797 22.279L34.2549 22.2414C34.4334 22.1663 34.6307 22.1193 34.8281 22.1193C35.063 22.1193 35.3448 22.2133 35.3448 22.6549V25.1542H36.51V22.5327C36.51 21.6119 36.012 21.1609 34.9784 21.1609" fill="black"/>
<path d="M47.4193 13.5032C47.4193 13.5032 47.4005 13.5032 47.3912 13.5032C46.7146 13.5032 46.0099 13.6911 45.7656 14.0575C45.6341 14.2361 45.5589 14.4616 45.5495 14.7247V16.4817C45.5495 16.6321 45.5213 16.6885 45.5119 16.7072L45.4743 16.7824H43.332V15.5515C43.3038 14.2643 42.5428 13.5501 41.434 13.5501H40.3535C40.3065 13.8696 40.2783 14.0857 40.2313 14.3958H41.3025C41.8662 14.3958 42.1669 14.875 42.1669 15.6173V16.8482L42.0918 16.8106C42.0918 16.8106 41.9884 16.773 41.838 16.773H39.987C39.9494 17.0079 39.9024 17.3086 39.8555 17.6187H45.5589C45.7468 17.5811 45.9817 17.5435 46.179 17.5059C46.4703 17.6469 47.0059 17.722 47.3724 17.722C48.6127 17.722 49.4113 16.8952 49.4113 15.6079C49.4113 14.3206 48.6314 13.5126 47.4287 13.4844L47.4193 13.5032ZM47.4287 16.7354C47.2596 16.7354 46.9683 16.7166 46.7428 16.6697H46.6771V14.9502C46.6771 14.8092 46.6489 14.7247 46.6395 14.7059L46.6019 14.6307L46.6771 14.6025C46.6771 14.6025 46.7146 14.5931 46.7334 14.5837H46.7428C46.7428 14.5837 46.7992 14.5555 46.818 14.5555H46.8556C47.1187 14.471 47.3536 14.4804 47.4663 14.471C48.1898 14.471 48.2744 15.1193 48.2744 15.5985C48.2744 16.5475 47.814 16.7448 47.4193 16.7448" fill="black"/>
<path d="M37.4129 18.1357H37.4692C38.7095 18.1357 39.2827 17.7223 39.2827 16.7169C39.2827 15.9934 38.7565 15.4108 37.8639 15.4108H36.7176C36.3793 15.4108 36.1726 15.2135 36.1726 14.8847C36.1726 14.6592 36.2572 14.3867 36.8115 14.3867H39.3015C39.3579 14.0672 39.3861 13.8605 39.433 13.541H36.8397C35.6276 13.541 35.0262 14.0484 35.0262 14.8941C35.0262 15.7397 35.5524 16.1625 36.4451 16.1625H37.5914C37.9297 16.1625 38.1364 16.435 38.1364 16.7169C38.1364 16.9048 38.0518 17.2901 37.4974 17.2901H32.9873C32.4235 17.2901 32.0289 16.9612 32.0289 16.2283V15.7115C32.0289 14.941 32.339 14.4618 32.9873 14.4618H34.0773C34.1242 14.133 34.1618 13.9263 34.1994 13.6162H32.7242C31.6155 13.6162 30.8544 14.3585 30.8262 15.6457V16.2189C30.8544 17.5156 31.6155 18.1263 32.7242 18.1263H37.4129V18.1357Z" fill="black"/>
</svg>
