<svg width="20" height="20" viewBox="0 0 20 20" fill="none" xmlns="http://www.w3.org/2000/svg">
<path d="M18.1508 6.14387C18.0778 6.12026 18.0015 6.11345 17.9263 6.12383C17.851 6.13421 17.7783 6.16158 17.7122 6.20437C17.6462 6.24715 17.5882 6.30452 17.5414 6.37317C17.4947 6.44181 17.4603 6.5204 17.44 6.6044L16.2665 12.9484C16.2321 13.0884 16.1597 13.2121 16.0599 13.3014C15.96 13.3907 15.838 13.4409 15.7115 13.4448H7.11538C6.98567 13.4434 6.86018 13.3916 6.75924 13.2979C6.6583 13.2042 6.58782 13.074 6.55923 12.9285L5.11462 5.4816H18.4231C18.5761 5.4816 18.7228 5.41168 18.831 5.28723C18.9392 5.16278 19 4.99399 19 4.818C19 4.642 18.9392 4.47321 18.831 4.34876C18.7228 4.22431 18.5761 4.1544 18.4231 4.1544H4.85731L4.645 3.0568C4.55905 2.61642 4.34573 2.22263 4.03992 1.93983C3.73411 1.65702 3.35392 1.50196 2.96154 1.5H1.57692C1.42391 1.5 1.27717 1.56991 1.16898 1.69436C1.06078 1.81881 1 1.9876 1 2.1636C1 2.3396 1.06078 2.50839 1.16898 2.63283C1.27717 2.75728 1.42391 2.8272 1.57692 2.8272H2.96154C3.22692 2.8272 3.46115 3.04353 3.51769 3.34348L5.43308 13.2178C5.52 13.6572 5.7335 14.0498 6.03891 14.3319C6.34432 14.6141 6.72368 14.7691 7.11538 14.772H15.7115C16.4662 14.772 17.1492 14.1801 17.3742 13.3174L18.5512 6.96009C18.5718 6.87626 18.5779 6.78855 18.5689 6.70202C18.5599 6.61549 18.5361 6.53186 18.4989 6.45597C18.4617 6.38008 18.4117 6.31342 18.352 6.25985C18.2922 6.20628 18.2238 6.16686 18.1508 6.14387Z" fill="#4A5F6B"/>
<circle cx="8" cy="16.5" r="1" fill="#4A5F6B"/>
<circle cx="15" cy="16.5" r="1" fill="#4A5F6B"/>
</svg>
