<svg width="20" height="17" viewBox="0 0 20 17" fill="none" xmlns="http://www.w3.org/2000/svg">
<path d="M18.9178 2.73208L12.072 0.0940314C11.7116 -0.044861 11.3051 -0.0292883 10.9566 0.136777L9.32338 0.914419C8.74412 0.800241 8.15749 0.865158 7.59932 1.11445C6.90553 1.42436 6.37774 1.9494 6.04964 2.49637C5.72157 1.9494 5.19372 1.42424 4.49991 1.1144C3.51434 0.674294 2.43993 0.807744 1.47439 1.49012C0.417892 2.23685 -0.112249 3.42146 0.0199182 4.74025C0.256975 7.10554 2.44483 9.42033 5.87233 10.9324C5.87857 10.9352 5.88486 10.9378 5.89127 10.9402L5.91579 10.9494C5.95859 10.9656 6.00396 10.9739 6.04971 10.9739C6.09527 10.9739 6.14079 10.9656 6.18412 10.9493L6.20854 10.94C6.21474 10.9377 6.2209 10.9351 6.22701 10.9324C8.1506 10.0839 9.68361 8.9823 10.7006 7.76102C10.7324 7.87083 10.8129 7.96517 10.9278 8.00943L12.8031 8.73199C12.9552 8.79308 13.1359 8.82179 13.331 8.82179C13.9171 8.82179 14.6322 8.5625 15.0882 8.14382C15.1118 8.12221 15.1403 8.10655 15.1711 8.09813L15.322 8.11434L16.6469 8.62491C16.8421 8.70006 17.0613 8.60285 17.1365 8.40776C17.2116 8.21259 17.1144 7.99348 16.9193 7.91826L15.5668 7.39703C15.2257 7.2656 14.8461 7.33796 14.576 7.58594C14.3906 7.75623 14.1431 7.88151 13.8982 7.96109C13.5678 8.06842 13.2422 8.09214 13.0802 8.02723L12.525 7.81329L11.2001 7.30273C11.1587 7.28686 11.1148 7.27842 11.0705 7.27779C11.4519 6.73624 11.7339 6.1756 11.9052 5.60635L13.7874 6.33164C14.2446 6.50788 14.7817 6.50887 15.2609 6.33454C15.7777 6.14641 16.161 5.78656 16.3404 5.3213C16.4155 5.12617 16.3183 4.90701 16.1231 4.83182C15.9705 4.77298 15.8034 4.82005 15.7017 4.93665C15.6727 4.96983 15.6497 5.00785 15.6337 5.04897C15.4298 5.5783 14.6649 5.85824 14.0597 5.62501L12.1728 4.89785C12.1371 4.88416 12.1009 4.87218 12.0641 4.86196C11.9408 4.82774 11.8142 4.81551 11.6885 4.82291C11.5528 4.83083 11.4182 4.86196 11.2901 4.91815C11.2885 4.9188 11.2869 4.91927 11.2854 4.91996L9.12818 5.87705C8.9196 5.96969 8.68299 5.96004 8.47905 5.85049C8.19135 5.69596 8.03936 5.35364 8.11767 5.0366C8.17321 4.81185 8.32482 4.62982 8.52894 4.53922L11.1861 3.40286L11.5345 3.25388L11.8816 3.10545L12.8656 2.68467C12.918 2.66221 12.9646 2.62812 13.002 2.58499C13.0642 2.51348 13.0973 2.42128 13.095 2.32652C13.0938 2.27873 13.0836 2.2316 13.0648 2.18763C12.9826 1.99538 12.7601 1.90613 12.5678 1.9884L12.0905 2.19249L11.5388 2.42843C11.4598 2.30833 11.3732 2.19339 11.2795 2.0843C11.0913 1.86481 10.8728 1.66527 10.625 1.49006C10.519 1.41518 10.4116 1.34812 10.3033 1.2865L11.2822 0.820416C11.4439 0.743352 11.6325 0.736165 11.7997 0.800599L17.1708 2.87039L18.6455 3.43867C18.6889 3.45545 18.735 3.46406 18.7816 3.46408C18.9336 3.46408 19.0771 3.37186 19.135 3.22147C19.2102 3.02639 19.1129 2.80724 18.9178 2.73208ZM9.83448 1.89156C9.95 1.95198 10.0678 2.02379 10.1879 2.10859C10.4428 2.2888 10.657 2.49835 10.8295 2.73185L8.22646 3.84505C7.80218 4.03331 7.49453 4.40144 7.38248 4.85513C7.22246 5.50279 7.53286 6.20204 8.12065 6.51774C8.34409 6.63778 8.58749 6.69816 8.83119 6.69816C9.0363 6.69816 9.2416 6.65537 9.43535 6.56933L10.9965 5.8767C10.7544 6.4301 10.3891 6.98311 9.90917 7.51531C8.97454 8.55159 7.67651 9.44847 6.04964 10.1823C4.42278 9.44847 3.12477 8.55159 2.19016 7.51531C1.35773 6.59226 0.867836 5.60652 0.773455 4.66475C0.667726 3.6098 1.07186 2.70197 1.91145 2.10859C2.4305 1.74174 2.9102 1.6167 3.32293 1.6167C3.66283 1.6167 3.95735 1.70152 4.19108 1.80584C5.03127 2.1811 5.60464 3.01985 5.67357 3.61396C5.69574 3.80493 5.8575 3.94897 6.04969 3.94897C6.24194 3.94897 6.40371 3.80489 6.42582 3.61396C6.49467 3.01991 7.068 2.18118 7.90816 1.80592C7.98438 1.77194 8.06241 1.74221 8.14192 1.71686C8.31534 1.6615 8.51186 1.62269 8.72754 1.6175C8.93694 1.61247 9.16431 1.63937 9.40597 1.71383C9.54442 1.75649 9.68743 1.81465 9.83448 1.89156ZM14.5281 12.4252L14.3722 12.1857C14.1505 11.845 13.8092 11.6111 13.4115 11.527C13.0137 11.4429 12.6071 11.5188 12.2665 11.7406L10.6231 12.8104C10.5933 12.7003 10.5465 12.5956 10.4844 12.5C10.268 12.1675 9.88504 11.9793 9.48251 12.0087L7.02864 12.199L5.03839 11.7633C3.97489 11.5306 2.84156 11.7376 1.92913 12.3316L0.597302 13.1986C0.422011 13.3127 0.372435 13.5473 0.48655 13.7225C0.600644 13.8978 0.835136 13.9474 1.01045 13.8333L1.39888 13.5804L2.34225 12.9663C3.08591 12.4822 4.00947 12.3133 4.8764 12.5031L6.92125 12.9508C6.95741 12.9587 6.99455 12.9612 7.03149 12.9583L9.5395 12.7639C9.66671 12.7546 9.7828 12.8104 9.84969 12.9132C9.87385 12.9501 9.89044 12.9914 9.89852 13.0348C9.90659 13.0782 9.90598 13.1227 9.89672 13.1658C9.88773 13.209 9.87025 13.25 9.84531 13.2864C9.82037 13.3228 9.78846 13.3539 9.75142 13.3779C9.70723 13.4067 9.65446 13.4236 9.59525 13.429L6.02489 13.7071C5.84022 13.7215 5.6971 13.8661 5.67804 14.0438C5.67546 14.0671 5.67504 14.0906 5.67678 14.114C5.69225 14.3125 5.85808 14.4633 6.05389 14.4633C6.06372 14.4633 6.07371 14.4628 6.08369 14.4621L8.27881 14.2911L9.65925 14.1836C9.84667 14.1664 10.0167 14.1088 10.1646 14.0125C10.1896 13.9963 10.2132 13.9786 10.2365 13.9606C10.2528 13.953 10.2688 13.9446 10.2844 13.9346L12.6796 12.3752C12.8508 12.2639 13.0552 12.2258 13.2549 12.268C13.4243 12.3038 13.5733 12.3937 13.6827 12.5246L8.50316 15.9099C8.19063 16.1142 7.8166 16.1878 7.44991 16.117L4.77942 15.6019L4.27153 15.5039C3.80925 15.4149 3.33745 15.5072 2.94292 15.764L2.46847 16.0729C2.29322 16.1869 2.24358 16.4215 2.35772 16.5968C2.47181 16.772 2.70635 16.8217 2.88162 16.7075L3.35607 16.3987C3.58529 16.2494 3.85941 16.1957 4.1281 16.2476L7.3065 16.8606C7.44412 16.8872 7.58396 16.9007 7.72413 16.9007C8.14518 16.9007 8.5579 16.7788 8.91744 16.5439L14.418 12.9487C14.5928 12.8345 14.6421 12.6002 14.5281 12.4252Z" fill="#283C47"/>
</svg>
