<svg width="20" height="19" viewBox="0 0 20 19" fill="none" xmlns="http://www.w3.org/2000/svg">
<path d="M10.6073 8.95826C11.0395 9.32311 11.4865 9.70029 11.9613 10.1118C12.0679 10.2041 12.2041 10.255 12.3451 10.255C12.4861 10.255 12.6223 10.2041 12.7288 10.1118C13.2037 9.70029 13.6506 9.32311 14.0829 8.95826C14.8688 8.29498 15.5475 7.72217 16.1288 7.16686C17.1896 6.1537 18.1712 4.99968 18.1712 3.43015C18.1712 1.55734 16.8365 0 14.9652 0C13.8508 0 12.9603 0.577382 12.3451 1.50648C11.7297 0.577382 10.8394 0 9.72502 0C7.85002 0 6.51885 1.56113 6.51885 3.43019C6.51885 4.41378 6.89924 5.31983 7.71604 6.28175C8.42346 7.11503 9.43541 7.9692 10.6073 8.95826ZM9.72498 1.17203C10.3416 1.17203 10.8671 1.46304 11.2869 2.03703C11.6357 2.51417 11.7794 3.01023 11.7803 3.01316C11.8506 3.26706 12.0814 3.44374 12.3448 3.44374C12.4728 3.44394 12.5974 3.40211 12.6993 3.32469C12.8013 3.24727 12.875 3.13852 12.9092 3.01515C12.9106 3.01023 13.0543 2.51417 13.4033 2.03718C13.8229 1.46316 14.3484 1.17203 14.9651 1.17203C16.1248 1.17203 16.9991 2.14277 16.9991 3.43015C16.9991 4.35456 16.5281 5.16464 15.3193 6.31925C14.7639 6.84967 14.098 7.41182 13.327 8.0626C13.0096 8.33053 12.6843 8.60502 12.3451 8.89557C12.0057 8.60502 11.6805 8.33053 11.3631 8.06276C9.07311 6.12975 7.69084 4.96308 7.69084 3.43015C7.69084 2.14277 8.5653 1.17203 9.72498 1.17203ZM19.7467 12.5598C19.2524 11.736 18.2032 11.4488 17.3585 11.9061L13.9598 13.7443C13.5774 12.5706 12.4727 11.7199 11.1731 11.7199H8.9674L6.7471 10.6099C5.67108 10.0719 4.39804 10.1776 3.42468 10.8858C2.90144 11.2663 2.08511 11.7199 1.16687 11.7199H0.585936C0.262304 11.7199 0 11.9824 0 12.3059V16.994C0 17.3176 0.262304 17.5799 0.585936 17.5799H5.26456L8.79194 18.1674C11.449 18.6101 14.1764 18.0744 16.4686 16.6595L19.1516 15.0055C19.9815 14.4932 20.2485 13.3961 19.7467 12.5598ZM1.17203 12.892C1.57105 12.8914 1.97722 12.8288 2.38312 12.7087V16.4079H1.17203V12.892ZM18.5363 14.008L15.8535 15.662C13.8026 16.9281 11.3621 17.4075 8.98467 17.0114C5.12327 16.3682 5.38269 16.4079 5.31311 16.4079H3.55515V12.1979C3.74762 12.0861 3.93417 11.9645 4.11405 11.8335C4.73222 11.3838 5.54015 11.3167 6.223 11.658L8.56701 12.83C8.64834 12.8708 8.73805 12.892 8.82901 12.892H11.1731C11.9371 12.892 12.5888 13.3818 12.8306 14.0638H8.82901C8.50537 14.0638 8.24307 14.3263 8.24307 14.6499C8.24307 14.9736 8.50537 15.2281 8.82901 15.2281H13.5061C13.6102 15.2302 13.714 15.2119 13.8054 15.1602L17.9162 12.9368C18.0563 12.8607 18.2205 12.8416 18.3744 12.8837C18.5282 12.9258 18.6599 13.0257 18.7417 13.1626C18.9152 13.4518 18.8229 13.831 18.5363 14.008Z" fill="#4A5F6B"/>
</svg>
