<svg width="18" height="18" viewBox="0 0 18 18" fill="none" xmlns="http://www.w3.org/2000/svg">
<path d="M13.1507 8.15943C12.6087 7.5597 11.9892 7.08189 11.3091 6.73829C11.4231 6.61687 11.51 6.47685 11.5652 6.32586C11.7879 5.71585 11.4626 4.99124 10.6323 4.75518L11.7962 2.92958C11.9431 2.69918 11.8111 2.40573 11.528 2.33168C10.6864 2.11159 9.8116 2 8.92773 2C8.04386 2 7.16905 2.11159 6.3275 2.33168C6.044 2.40581 5.91258 2.69945 6.05926 2.92958L7.22319 4.75521C6.3962 4.99007 6.0668 5.71361 6.29044 6.32619C6.34551 6.47708 6.43249 6.61698 6.54658 6.73818C5.86641 7.08178 5.24682 7.55964 4.70482 8.15943C3.62138 9.35837 3 10.8707 3 12.3086C3 15.2916 5.64611 16 8.92773 16C12.2117 16 14.8555 15.2903 14.8555 12.3086C14.8555 10.8707 14.2341 9.35837 13.1507 8.15943ZM7.14929 2.99034C7.73372 2.87708 8.32989 2.82008 8.92773 2.82031C9.52558 2.82008 10.1217 2.87708 10.7062 2.99034L9.70202 4.56539C9.18833 4.50081 8.66716 4.50082 8.15348 4.56542L7.14929 2.99034ZM7.4472 5.55184C8.23194 5.3203 9.05295 5.27641 9.85112 5.41994L9.85398 5.42043C10.0413 5.45425 10.2261 5.49807 10.4076 5.55165C10.6466 5.6225 10.7772 5.855 10.6989 6.06957C10.6716 6.14455 10.6209 6.21086 10.5528 6.2605C10.4846 6.31013 10.402 6.34098 10.3148 6.34932C9.86012 6.22127 9.39639 6.15625 8.92773 6.15625C8.46002 6.15625 7.9972 6.221 7.54344 6.34853C7.36388 6.33191 7.21319 6.22412 7.15674 6.06995C7.07828 5.855 7.20887 5.62247 7.4472 5.55184ZM8.92773 15.1852C5.36514 15.1852 3.91196 14.3479 3.91196 12.3086C3.91196 11.0742 4.47291 9.7166 5.41244 8.67685C6.40328 7.5804 7.65169 6.97656 8.92773 6.97656C10.3323 6.97656 11.5609 7.70068 12.443 8.67685C13.3826 9.7166 13.9435 11.0742 13.9435 12.3086C13.9435 14.3479 12.4903 15.1852 8.92773 15.1852Z" fill="#283C47"/>
</svg>
