<svg width="43" height="43" viewBox="0 0 43 43" fill="none" xmlns="http://www.w3.org/2000/svg">
<path d="M32.2144 19.3321V26.4988C32.2144 26.9646 32.1964 27.4125 32.1427 27.8425C31.7306 32.68 28.8818 35.0808 23.6323 35.0808H22.9156C22.4677 35.0808 22.0377 35.2958 21.7689 35.6542L19.6189 38.5208C18.6694 39.7929 17.1285 39.7929 16.1789 38.5208L14.0289 35.6542C13.796 35.3496 13.2764 35.0808 12.8823 35.0808H12.1656C6.45018 35.0808 3.5835 33.6654 3.5835 26.4988V19.3321C3.5835 14.0825 6.00226 11.2338 10.8218 10.8217C11.2518 10.7679 11.6998 10.75 12.1656 10.75H23.6323C29.3477 10.75 32.2144 13.6167 32.2144 19.3321Z" stroke="#111111" stroke-width="1.5" stroke-miterlimit="10" stroke-linecap="round" stroke-linejoin="round"/>
<path d="M39.3809 12.1656V19.3323C39.3809 24.5998 36.9622 27.4306 32.1426 27.8427C32.1963 27.4127 32.2143 26.9648 32.2143 26.4989V19.3323C32.2143 13.6168 29.3476 10.7502 23.6322 10.7502H12.1655C11.6997 10.7502 11.2518 10.7681 10.8218 10.8218C11.2339 6.00226 14.0826 3.5835 19.3322 3.5835H30.7988C36.5143 3.5835 39.3809 6.45018 39.3809 12.1656Z" stroke="#111111" stroke-width="1.5" stroke-miterlimit="10" stroke-linecap="round" stroke-linejoin="round"/>
<path d="M24.1793 23.7396H24.1954" stroke="#111111" stroke-width="1.5" stroke-linecap="round" stroke-linejoin="round"/>
<path d="M17.9088 23.7396H17.9249" stroke="#111111" stroke-width="1.5" stroke-linecap="round" stroke-linejoin="round"/>
<path d="M11.6378 23.7396H11.6539" stroke="#111111" stroke-width="1.5" stroke-linecap="round" stroke-linejoin="round"/>
</svg>
