<svg width="18" height="17" viewBox="0 0 18 17" fill="none" xmlns="http://www.w3.org/2000/svg">
<path d="M11.5414 13.646C11.6991 13.6464 11.8553 13.6155 12.001 13.5549C12.1466 13.4944 12.2788 13.4056 12.3898 13.2935L12.6019 13.0805C12.7222 12.9595 12.8154 12.8142 12.8753 12.6544C12.9352 12.4946 12.9606 12.3239 12.9496 12.1535C13.1196 12.1641 13.29 12.1384 13.4493 12.078C13.6086 12.0177 13.7533 11.9241 13.8736 11.8034L14.0857 11.5904C14.206 11.4694 14.2992 11.3241 14.3591 11.1643C14.419 11.0045 14.4444 10.8338 14.4334 10.6634C14.6034 10.6735 14.7736 10.6475 14.9329 10.5871C15.0921 10.5267 15.2368 10.4333 15.3574 10.313L15.5692 10.1L16.417 9.24865C17.4275 8.22984 17.9944 6.85303 17.9944 5.4181C17.9944 3.98316 17.4275 2.60636 16.417 1.58755C15.4429 0.607524 14.129 0.0398218 12.7478 0.00206713C11.3665 -0.0356876 10.0236 0.4594 8.99739 1.38475C7.97113 0.45941 6.62825 -0.035693 5.24694 0.00200505C3.86562 0.0397031 2.55174 0.607313 1.57749 1.58725C0.566992 2.60611 0 3.98297 0 5.41795C0 6.85293 0.566992 8.22979 1.57749 9.24865L3.48519 11.1647L3.69729 11.3774C3.8082 11.4895 3.94031 11.5784 4.08591 11.6389C4.23152 11.6994 4.38771 11.7304 4.54539 11.7299C4.57299 11.7299 4.59939 11.7236 4.62669 11.7218C4.61379 11.8927 4.63765 12.0644 4.69664 12.2253C4.75563 12.3861 4.84839 12.5325 4.96869 12.6545L5.18079 12.8675C5.29176 12.9795 5.42388 13.0684 5.56947 13.1289C5.71506 13.1894 5.87122 13.2204 6.02889 13.22C6.05649 13.22 6.08289 13.214 6.10989 13.2122C6.09699 13.383 6.1209 13.5546 6.18 13.7154C6.2391 13.8761 6.33203 14.0223 6.45249 14.144L6.66429 14.357C6.7753 14.4692 6.9075 14.5581 7.0532 14.6187C7.19891 14.6793 7.3552 14.7102 7.51299 14.7098C7.54029 14.7098 7.56669 14.7038 7.59399 14.702C7.58135 14.8725 7.60533 15.0437 7.66432 15.2041C7.72331 15.3645 7.81594 15.5104 7.93599 15.632L8.14869 15.8456C8.25956 15.9581 8.39171 16.0473 8.53742 16.1081C8.68313 16.1689 8.83949 16.2002 8.99739 16.1999C9.15501 16.2003 9.31114 16.1694 9.45669 16.1088C9.60223 16.0483 9.7343 15.9595 9.84519 15.8474L11.1163 14.5709C11.2368 14.4491 11.3298 14.3027 11.3889 14.1418C11.448 13.9809 11.4719 13.8092 11.4589 13.6382C11.4862 13.64 11.5129 13.646 11.5405 13.646H11.5414ZM15.9919 2.00995C16.8908 2.91607 17.3952 4.1407 17.3952 5.41705C17.3952 6.69339 16.8908 7.91803 15.9919 8.82415L15.8752 8.94145C15.823 8.73706 15.7176 8.55018 15.5695 8.39995L10.9057 3.71635C10.7345 3.55207 10.5064 3.46034 10.2691 3.46034C10.0318 3.46034 9.80371 3.55207 9.63249 3.71635L7.30089 6.05785C7.07308 6.2767 6.76943 6.39892 6.45354 6.39892C6.13764 6.39892 5.83399 6.2767 5.60619 6.05785C5.54972 6.00098 5.51804 5.92409 5.51804 5.84395C5.51804 5.76381 5.54972 5.68692 5.60619 5.63005L9.21009 2.00995C9.65433 1.56309 10.1825 1.20848 10.7643 0.966497C11.3461 0.724515 11.97 0.599941 12.6001 0.599941C13.2302 0.599941 13.8541 0.724515 14.4359 0.966497C15.0176 1.20848 15.5458 1.56309 15.9901 2.00995H15.9919ZM2.00289 2.00995C2.86285 1.143 4.02256 0.638875 5.24311 0.601426C6.46366 0.563976 7.65209 0.996052 8.56359 1.80865L5.18139 5.20615C5.0131 5.37564 4.91866 5.6048 4.91866 5.84365C4.91866 6.0825 5.0131 6.31165 5.18139 6.48115C5.34822 6.64877 5.54653 6.78179 5.76492 6.87255C5.98331 6.96331 6.21748 7.01003 6.45399 7.01003C6.69049 7.01003 6.92466 6.96331 7.14305 6.87255C7.36144 6.78179 7.55975 6.64877 7.72659 6.48115L10.0579 4.13995C10.1145 4.08511 10.1903 4.05445 10.2691 4.05445C10.3479 4.05445 10.4237 4.08511 10.4803 4.13995L15.1441 8.82295C15.2568 8.93637 15.3201 9.08979 15.3201 9.2497C15.3201 9.40961 15.2568 9.56302 15.1441 9.67645L14.932 9.88945C14.8183 9.99887 14.6666 10.06 14.5088 10.06C14.351 10.06 14.1994 9.99887 14.0857 9.88945L10.6939 6.48325C10.6661 6.45532 10.633 6.43314 10.5966 6.41797C10.5603 6.40281 10.5212 6.39496 10.4818 6.39488C10.4424 6.3948 10.4034 6.40248 10.3669 6.41749C10.3305 6.43249 10.2973 6.45453 10.2694 6.48235C10.2415 6.51016 10.2193 6.5432 10.2041 6.57959C10.189 6.61598 10.1811 6.65499 10.181 6.69441C10.1809 6.73383 10.1886 6.77288 10.2036 6.80933C10.2186 6.84578 10.2407 6.87892 10.2685 6.90685L13.6603 10.313C13.773 10.4266 13.8362 10.58 13.8362 10.7399C13.8362 10.8999 13.773 11.0533 13.6603 11.1668L13.4485 11.3798C13.3347 11.4891 13.1831 11.5501 13.0253 11.5501C12.8676 11.5501 12.716 11.4891 12.6022 11.3798L9.21009 7.97335C9.18227 7.94542 9.14923 7.92324 9.11284 7.90807C9.07646 7.89291 9.03744 7.88506 8.99802 7.88498C8.9586 7.8849 8.91956 7.89258 8.88311 7.90759C8.84666 7.92259 8.81352 7.94463 8.78559 7.97245C8.75765 8.00026 8.73547 8.03331 8.72031 8.06969C8.70515 8.10608 8.6973 8.14509 8.69722 8.18451C8.69714 8.22393 8.70482 8.26298 8.71982 8.29943C8.73483 8.33588 8.75687 8.36902 8.78469 8.39695L12.1774 11.8034C12.2899 11.9169 12.353 12.0702 12.353 12.2299C12.353 12.3896 12.2899 12.5429 12.1774 12.6563L11.9653 12.8696C11.9098 12.9255 11.8439 12.9698 11.7713 13.0001C11.6986 13.0303 11.6207 13.0459 11.542 13.0459C11.4633 13.0459 11.3854 13.0303 11.3127 13.0001C11.2401 12.9698 11.1741 12.9255 11.1187 12.8696C11.1187 12.8681 11.1148 12.8675 11.113 12.866L10.9072 12.656C10.7845 12.5381 10.6381 12.4474 10.4778 12.3901C10.3175 12.3327 10.1469 12.31 9.97719 12.3233C9.99198 12.1507 9.96912 11.977 9.91017 11.8141C9.85123 11.6512 9.75761 11.503 9.63579 11.3798L9.42399 11.1665C9.31293 11.0545 9.18072 10.9656 9.03503 10.905C8.88934 10.8444 8.73307 10.8134 8.57529 10.8137C8.54769 10.8137 8.52129 10.8197 8.49399 10.8215C8.50697 10.6508 8.48316 10.4792 8.42416 10.3184C8.36516 10.1576 8.27235 10.0113 8.15199 9.88945L7.93989 9.67615C7.81743 9.55772 7.67116 9.46671 7.51081 9.40919C7.35046 9.35167 7.1797 9.32895 7.00989 9.34255C7.02424 9.16991 7.00093 8.99621 6.94157 8.83347C6.88221 8.67072 6.78822 8.52281 6.66609 8.39995L6.45429 8.18665C6.34305 8.07481 6.21081 7.98606 6.06516 7.92549C5.91951 7.86493 5.76332 7.83376 5.60559 7.83376C5.44785 7.83376 5.29166 7.86493 5.14601 7.92549C5.00036 7.98606 4.86812 8.07481 4.75689 8.18665L3.48519 9.46375C3.33702 9.61457 3.23162 9.80208 3.17979 10.007L2.00289 8.82505C1.1038 7.91885 0.599289 6.69404 0.599289 5.4175C0.599289 4.14096 1.1038 2.91615 2.00289 2.00995ZM4.54569 11.1299C4.46703 11.1301 4.38912 11.1146 4.3165 11.0844C4.24389 11.0541 4.178 11.0098 4.12269 10.9538L3.91089 10.7411C3.7982 10.6276 3.73497 10.4741 3.73497 10.3141C3.73497 10.1541 3.7982 10.0006 3.91089 9.88705L5.18229 8.60995C5.23772 8.55409 5.30367 8.50976 5.37632 8.47951C5.44897 8.44925 5.52689 8.43368 5.60559 8.43368C5.68428 8.43368 5.7622 8.44925 5.83485 8.47951C5.9075 8.50976 5.97345 8.55409 6.02889 8.60995L6.24099 8.82325C6.35365 8.93676 6.41688 9.09021 6.41688 9.25015C6.41688 9.41008 6.35365 9.56353 6.24099 9.67705L4.96899 10.9541C4.91362 11.0101 4.84768 11.0544 4.775 11.0846C4.70233 11.1148 4.62438 11.1302 4.54569 11.1299ZM6.02949 12.62C5.95083 12.6202 5.87292 12.6047 5.8003 12.5745C5.72769 12.5442 5.6618 12.4999 5.60649 12.4439L5.39439 12.2312C5.2817 12.1177 5.21847 11.9642 5.21847 11.8042C5.21847 11.6442 5.2817 11.4907 5.39439 11.3771L6.66609 10.1C6.72161 10.0443 6.7876 10 6.86027 9.96986C6.93293 9.93967 7.01085 9.92413 7.08954 9.92413C7.16822 9.92413 7.24614 9.93967 7.31881 9.96986C7.39147 10 7.45746 10.0443 7.51299 10.1L7.72479 10.3133C7.83747 10.4269 7.90071 10.5804 7.90071 10.7404C7.90071 10.9004 7.83747 11.0539 7.72479 11.1674L6.45309 12.4439C6.39772 12.5 6.33175 12.5445 6.25903 12.5747C6.1863 12.605 6.10827 12.6202 6.02949 12.62ZM7.09029 13.934L6.87819 13.7207C6.76539 13.6074 6.70207 13.4539 6.70207 13.294C6.70207 13.1341 6.76539 12.9806 6.87819 12.8672L8.14989 11.5901C8.2637 11.4808 8.41538 11.4198 8.57319 11.4198C8.73099 11.4198 8.88267 11.4808 8.99649 11.5901L9.20859 11.8034C9.32094 11.9168 9.38398 12.07 9.38398 12.2296C9.38398 12.3892 9.32094 12.5424 9.20859 12.6557L9.20679 12.6572L7.93569 13.9337V13.9352C7.82189 14.0442 7.67036 14.105 7.51281 14.1048C7.35525 14.1046 7.20385 14.0436 7.09029 13.9343V13.934ZM10.6903 14.147L9.42039 15.4241C9.36498 15.4799 9.2991 15.5242 9.22653 15.5543C9.15396 15.5845 9.07614 15.6001 8.99754 15.6001C8.91893 15.6001 8.84111 15.5845 8.76854 15.5543C8.69597 15.5242 8.63009 15.4799 8.57469 15.4241L8.36199 15.2108C8.24963 15.0975 8.18659 14.9443 8.18659 14.7847C8.18659 14.6251 8.24963 14.4719 8.36199 14.3585L9.63399 13.0799C9.68908 13.0247 9.75455 12.9809 9.82662 12.951C9.8987 12.9212 9.97597 12.9059 10.054 12.9059C10.2129 12.9057 10.3655 12.9685 10.4782 13.0805L10.6882 13.2953C10.801 13.4082 10.8647 13.5611 10.8653 13.7207C10.8659 13.8803 10.8035 14.0336 10.6915 14.1473L10.6903 14.147Z" fill="#283C47"/>
</svg>
