<svg width="12" height="12" viewBox="0 0 12 12" fill="none" xmlns="http://www.w3.org/2000/svg">
<g clip-path="url(#clip0_2282_351)">
<path d="M11.2501 5.5876H6.43135V0.750098C6.43135 0.525098 6.24385 0.318848 6.0001 0.318848C5.7751 0.318848 5.56885 0.506348 5.56885 0.750098V5.5876H0.750098C0.525098 5.5876 0.318848 5.7751 0.318848 6.01885C0.318848 6.24385 0.506348 6.4501 0.750098 6.4501H5.5876V11.2501C5.5876 11.4751 5.7751 11.6813 6.01885 11.6813C6.24385 11.6813 6.4501 11.4938 6.4501 11.2501V6.43135H11.2501C11.4751 6.43135 11.6813 6.24385 11.6813 6.0001C11.6813 5.7751 11.4751 5.5876 11.2501 5.5876Z" fill="#4A5F6B"/>
</g>
<defs>
<clipPath id="clip0_2282_351">
<rect width="12" height="12" fill="white"/>
</clipPath>
</defs>
</svg>
