<svg width="18" height="18" viewBox="0 0 18 18" fill="none" xmlns="http://www.w3.org/2000/svg">
<path d="M14.7735 12.1103L14.7712 12.1073C14.9055 11.8748 14.931 11.5951 14.8417 11.3416C14.7575 11.111 14.5854 10.9232 14.363 10.8193C14.1406 10.7155 13.8861 10.7039 13.6553 10.7873H13.65L12.7628 11.1181C12.7737 10.9364 12.7296 10.7557 12.636 10.5997C12.5424 10.4436 12.4039 10.3195 12.2385 10.2436C12.1276 10.1919 12.0076 10.1626 11.8853 10.1573C11.7631 10.152 11.641 10.1709 11.526 10.2128H11.5252L9.87225 10.8301C9.87973 10.6598 9.83655 10.4912 9.74817 10.3456C9.65979 10.1999 9.53018 10.0838 9.37575 10.0118C9.26874 9.96095 9.15266 9.93198 9.0343 9.92657C8.91595 9.92116 8.7977 9.93943 8.6865 9.9803L5.661 11.1023C5.55024 11.0611 5.44046 11.0174 5.33175 10.9711C4.94516 10.787 4.52261 10.6907 4.09443 10.6893C3.66624 10.6879 3.24305 10.7813 2.85525 10.9628C2.82375 10.7973 2.73565 10.6479 2.60607 10.5402C2.47649 10.4325 2.31349 10.3732 2.145 10.3726H0.7245C0.532533 10.3731 0.348598 10.4497 0.212857 10.5854C0.077115 10.7212 0.00059341 10.9051 0 11.0971V15.2483C0.000396343 15.4403 0.0768547 15.6244 0.212639 15.7602C0.348423 15.8959 0.532472 15.9724 0.7245 15.9728H2.145C2.30514 15.9724 2.46062 15.9189 2.58721 15.8208C2.71379 15.7227 2.80434 15.5855 2.84475 15.4306C3.57471 15.4466 4.29778 15.5757 4.98825 15.8131L6.61575 16.2998C6.97875 16.3951 7.353 16.4401 7.728 16.4348C8.12222 16.4408 8.51532 16.3913 8.89575 16.2878C9.72975 16.0298 11.0565 15.5221 11.5815 15.3106L14.8282 13.9898C14.9479 13.9394 15.0551 13.8633 15.142 13.7669C15.229 13.6704 15.2937 13.556 15.3315 13.4318C15.38 13.276 15.3948 13.1117 15.3752 12.9497C15.3555 12.7877 15.3018 12.6318 15.2175 12.4921C15.1122 12.3223 14.9572 12.189 14.7735 12.1103ZM2.32575 15.2483C2.32536 15.2963 2.30624 15.3422 2.27247 15.3762C2.2387 15.4103 2.19295 15.4298 2.145 15.4306H0.7245C0.676294 15.4304 0.630131 15.4111 0.596114 15.3769C0.562098 15.3428 0.543 15.2965 0.543 15.2483V11.0971C0.543 10.9966 0.624 10.9156 0.7245 10.9156H2.145C2.24475 10.9171 2.325 10.9973 2.3265 11.0971L2.32575 15.2483ZM12.2662 11.8846C12.2785 11.8807 12.2905 11.8762 12.3022 11.8711L13.8383 11.2973C13.8853 11.2796 13.9354 11.2714 13.9857 11.2731C14.0359 11.2748 14.0854 11.2864 14.1311 11.3073C14.1769 11.3281 14.2181 11.3577 14.2524 11.3945C14.2867 11.4313 14.3134 11.4745 14.331 11.5216C14.3641 11.6156 14.3586 11.7198 14.3156 11.8098C14.2725 11.8998 14.1955 11.969 14.1015 12.0023L10.1962 13.4573C10.1952 13.2006 10.1099 12.9513 9.95325 12.7478L12.2662 11.8846ZM11.709 10.7243C11.8068 10.6892 11.9144 10.6935 12.009 10.7363C12.099 10.7783 12.1687 10.8541 12.2017 10.9478C12.228 11.0246 12.2292 11.1078 12.2051 11.1854C12.1809 11.2629 12.1328 11.3307 12.0675 11.3791L9.372 12.3833L8.274 12.0053L11.709 10.7243ZM8.868 10.4948C8.90897 10.4794 8.95258 10.4722 8.99633 10.4736C9.04008 10.4751 9.08312 10.4851 9.123 10.5032C9.16287 10.5213 9.19879 10.547 9.22871 10.579C9.25863 10.6109 9.28196 10.6485 9.29737 10.6894C9.31279 10.7304 9.31998 10.774 9.31854 10.8178C9.3171 10.8615 9.30706 10.9046 9.28899 10.9444C9.27092 10.9843 9.24517 11.0202 9.21321 11.0501C9.18126 11.0801 9.14372 11.1034 9.10275 11.1188L9.0855 11.1263L7.467 11.7263L6.47175 11.3813L8.868 10.4948ZM14.8215 13.2646L14.817 13.2653C14.8032 13.3142 14.7789 13.3595 14.7457 13.398C14.7126 13.4365 14.6714 13.4672 14.625 13.4881L11.379 14.8096C10.8615 15.0196 9.555 15.5176 8.73675 15.7703C8.09245 15.9324 7.41849 15.936 6.7725 15.7808L5.145 15.2941C4.41236 15.0437 3.64575 14.9069 2.87175 14.8883V11.5313C4.167 11.0716 4.55625 11.2321 5.1255 11.4706C5.265 11.5283 9.29175 12.9256 9.29175 12.9256H9.30075C9.38622 12.9549 9.46236 13.0063 9.5214 13.0747C9.58043 13.1431 9.62024 13.226 9.63675 13.3148C9.67129 13.4619 9.64934 13.6166 9.57525 13.7483C9.54992 13.7921 9.51777 13.8316 9.48 13.8653C9.33064 13.9607 9.1592 14.016 8.98225 14.0258C8.80529 14.0357 8.62878 13.9998 8.46975 13.9216L6.18 13.1656C6.11248 13.1459 6.03998 13.1532 5.97775 13.186C5.91552 13.2187 5.86842 13.2743 5.84635 13.3411C5.82429 13.4078 5.829 13.4805 5.85947 13.5439C5.88995 13.6073 5.94382 13.6564 6.00975 13.6808L8.2995 14.4361C8.526 14.5156 8.76375 14.5576 9.00375 14.5613C9.312 14.5741 9.61275 14.4691 9.846 14.2673C9.9 14.2186 9.94875 14.1638 9.99075 14.1053L13.9725 12.6248H13.983C14.11 12.5554 14.2572 12.5328 14.3992 12.5607C14.5411 12.5887 14.6688 12.6655 14.76 12.7778C14.8037 12.8501 14.8318 12.9308 14.8424 13.0147C14.853 13.0985 14.8459 13.1836 14.8215 13.2646ZM17.484 2.11655H15.8888C15.7605 2.11583 15.6365 2.16278 15.5409 2.24828C15.4453 2.33378 15.3848 2.45175 15.3713 2.5793C14.9766 2.48539 14.5844 2.38111 14.1952 2.26655C12.8918 1.90055 11.271 1.4408 10.1993 1.59455C8.676 1.81205 7.4235 3.0128 5.949 4.5593C5.25327 4.63552 4.61361 4.97675 4.16283 5.51216C3.71206 6.04756 3.48479 6.736 3.52822 7.43455C3.57165 8.1331 3.88244 8.78809 4.39606 9.26353C4.90968 9.73898 5.58668 9.99835 6.2865 9.9878C6.80639 9.98823 7.3156 9.84016 7.75419 9.561C8.19278 9.28185 8.54252 8.88323 8.76225 8.41205C9.02261 8.37657 9.28479 8.35604 9.5475 8.35055C9.80627 8.36103 10.0642 8.38657 10.32 8.42705C10.8503 8.5043 11.3857 8.5463 11.922 8.55305C12.2647 8.5538 12.6075 8.53055 12.9473 8.48255C13.562 8.34843 14.1548 8.12853 14.7083 7.8293C14.9385 7.72055 15.1747 7.60805 15.3832 7.5233C15.408 7.63909 15.4716 7.7429 15.5636 7.81742C15.6556 7.89194 15.7704 7.93267 15.8888 7.9328H17.484C17.6208 7.93261 17.7519 7.87818 17.8486 7.78145C17.9454 7.68473 17.9998 7.55359 18 7.4168V2.6333C17.9998 2.49644 17.9454 2.36524 17.8487 2.26839C17.752 2.17155 17.6209 2.11695 17.484 2.11655ZM6.2835 9.4433C5.99353 9.44842 5.70546 9.3957 5.4361 9.28822C5.16674 9.18074 4.9215 9.02065 4.71472 8.81731C4.50793 8.61397 4.34375 8.37146 4.23176 8.10395C4.11977 7.83643 4.06221 7.54928 4.06246 7.25927C4.06271 6.96926 4.12076 6.68221 4.23321 6.41488C4.34566 6.14756 4.51026 5.90533 4.7174 5.70235C4.92453 5.49936 5.17004 5.3397 5.43958 5.23268C5.70912 5.12566 5.99729 5.07343 6.28725 5.07905V5.08205C6.66491 5.08464 7.03562 5.18396 7.36399 5.37053C7.69236 5.5571 7.96744 5.8247 8.163 6.1478C8.0153 6.17499 7.86911 6.20979 7.725 6.25205C7.43149 6.32828 7.17339 6.50368 6.99445 6.74851C6.81551 6.99333 6.72676 7.29251 6.74325 7.5953C6.74056 7.79596 6.80792 7.99127 6.93373 8.1476C7.05953 8.30394 7.23592 8.41151 7.4325 8.4518C7.653 8.48405 7.87575 8.4923 8.09775 8.47655C7.89802 8.77432 7.62801 9.0183 7.31158 9.18691C6.99515 9.35553 6.64205 9.44359 6.2835 9.4433ZM15.3675 6.8723C15.051 6.99005 14.7413 7.12505 14.4398 7.27655C13.9401 7.54669 13.4063 7.74825 12.8527 7.8758C12.0322 7.97255 11.2028 7.95305 10.3883 7.81805C10.1073 7.77533 9.82404 7.74978 9.54 7.74155C9.24225 7.74905 8.94525 7.77455 8.6505 7.81655L8.658 7.88705L8.64825 7.81655C8.28 7.8788 7.90575 7.89155 7.5345 7.85555C7.40475 7.8338 7.35975 7.66205 7.35375 7.56305C7.34834 7.39837 7.39994 7.23687 7.49983 7.10582C7.59972 6.97478 7.74177 6.88223 7.902 6.8438C8.09625 6.7853 8.37675 6.73505 8.709 6.67505C9.70125 6.49505 10.9358 6.2723 11.3947 5.5508C11.5755 5.2613 11.6213 4.9073 11.52 4.5818C11.4875 4.43842 11.42 4.3053 11.3236 4.19433C11.2271 4.08336 11.1047 3.99798 10.9672 3.9458C10.3463 3.7073 9.28725 4.0688 7.8195 5.01755C7.50424 4.80301 7.14804 4.65593 6.77325 4.58555C8.12775 3.1943 9.147 2.36105 10.2847 2.19905C11.5611 2.20436 12.8274 2.42626 14.0295 2.8553C14.5537 3.00305 15.012 3.1328 15.3682 3.20255L15.3675 6.8723ZM8.29875 5.4353H8.30025C9.44925 4.7123 10.359 4.36805 10.749 4.5143C10.8435 4.5518 10.911 4.63655 10.9268 4.73705C10.9534 4.81663 10.9627 4.90101 10.9539 4.98448C10.9451 5.06795 10.9185 5.14855 10.8758 5.2208C10.5697 5.7023 9.477 5.9108 8.7225 6.04805C8.61025 5.8252 8.46764 5.61899 8.29875 5.4353ZM17.4525 7.3913H15.909L15.9105 2.65955H17.4525V7.3913Z" fill="white"/>
</svg>
