<svg width="43" height="43" viewBox="0 0 43 43" fill="none" xmlns="http://www.w3.org/2000/svg">
<path d="M25.1615 13.1015C25.1848 13.1867 25.2247 13.2664 25.2789 13.3362C25.3331 13.4059 25.4005 13.4643 25.4772 13.508C25.554 13.5517 25.6386 13.5798 25.7262 13.5908C25.8138 13.6017 25.9028 13.5953 25.9879 13.5718L29.3238 12.6581C29.4951 12.6109 29.6407 12.4979 29.7288 12.3436C29.817 12.1894 29.8404 12.0065 29.7941 11.835L28.6754 7.75676C28.6283 7.58548 28.5152 7.43985 28.361 7.35171C28.2067 7.26357 28.0239 7.24011 27.8524 7.28645L24.5232 8.2002C24.4381 8.22352 24.3583 8.26341 24.2886 8.31758C24.2188 8.37175 24.1604 8.43914 24.1167 8.51589C24.0731 8.59265 24.0449 8.67726 24.034 8.7649C24.023 8.85253 24.0295 8.94146 24.0529 9.0266L25.1615 13.1015ZM27.5467 8.76121L28.3059 11.5394L26.2802 12.0937L25.531 9.31887L27.5467 8.76121Z" fill="#111111"/>
<path d="M40.2419 21.6309C39.6305 21.0632 38.1255 20.4719 37.2991 19.7261C37.2401 19.6743 37.1732 19.6323 37.1009 19.6019L32.8848 4.21591C32.8086 3.93581 32.6779 3.6735 32.5001 3.44399C32.3224 3.21449 32.1011 3.02231 31.8489 2.87845C31.5968 2.73459 31.3188 2.64189 31.0307 2.60565C30.7427 2.56941 30.4504 2.59034 30.1705 2.66724L19.7967 5.50927C19.5166 5.5855 19.2543 5.71624 19.0248 5.89399C18.7953 6.07175 18.6031 6.29303 18.4592 6.54517C18.3154 6.79731 18.2227 7.07535 18.1864 7.36337C18.1502 7.65139 18.1711 7.94373 18.248 8.22365L22.108 22.3061C20.6231 23.3576 19.7833 24.9936 20.8146 26.4886C21.0125 26.7646 21.2653 26.9967 21.5573 27.1701C21.8493 27.3436 22.174 27.4547 22.5111 27.4964C22.4872 27.9971 22.5995 28.4949 22.8362 28.9368C23.0728 29.3787 23.4249 29.7482 23.8548 30.0058C24.6812 30.4728 25.5345 30.3418 26.408 29.9252L26.3072 30.1805C25.548 32.0954 26.4953 33.7549 26.9522 34.5477C27.0093 34.6485 27.0798 34.7728 27.1034 34.8265C27.126 35.0392 27.1033 35.2543 27.0367 35.4576C26.9701 35.6608 26.8612 35.8477 26.717 36.0057C26.6239 36.1176 26.5696 36.2567 26.5623 36.4021C26.555 36.5475 26.5952 36.6913 26.6767 36.8119C27.9298 38.673 31.5713 39.4054 33.6004 38.9922C37.1916 38.2565 38.0482 36.429 38.1355 36.2207C38.1919 36.0795 38.2001 35.9236 38.1591 35.7772C38.1591 35.7772 37.8937 34.7694 38.1591 32.9621C38.3741 31.5411 40.9171 25.3195 41.0851 24.5334C41.1779 24.0174 41.15 23.4868 41.0038 22.9833C40.8575 22.4798 40.5967 22.0169 40.2419 21.6309ZM19.5448 7.85748C19.4873 7.637 19.5193 7.40275 19.6339 7.20579C19.7484 7.00883 19.9361 6.86512 20.1562 6.80599L30.5266 3.96396C30.7461 3.90627 30.9796 3.93737 31.1764 4.05055C31.3732 4.16372 31.5175 4.34986 31.578 4.56865L36.046 20.8751C36.0761 20.9845 36.0843 21.0987 36.0702 21.2113C36.056 21.3239 36.0199 21.4326 35.9637 21.5312C35.9075 21.6298 35.8325 21.7163 35.7429 21.7859C35.6532 21.8555 35.5508 21.9067 35.4413 21.9366L31.9409 22.9008C31.7039 22.0179 31.3479 21.1714 30.8826 20.3846C29.7438 18.7049 27.4225 17.5258 25.9847 18.846C24.95 19.7967 25.3766 20.8616 25.8705 22.0945C26.1777 22.8305 26.4402 23.5844 26.6566 24.352C26.0989 24.5099 25.2926 24.7316 24.9265 24.8089C24.8256 24.8288 24.7218 24.8285 24.621 24.808C24.5203 24.7874 24.4246 24.7471 24.3396 24.6893C24.2546 24.6314 24.1819 24.5573 24.1258 24.4711C24.0697 24.385 24.0313 24.2885 24.0127 24.1874L19.5448 7.85748ZM34.5343 25.1247C34.1198 25.503 33.6698 25.8405 33.1905 26.1325C32.7989 25.5367 32.5104 24.8791 32.3373 24.1874L33.167 23.959C33.5947 24.3793 34.0516 24.7688 34.5343 25.1247ZM21.9165 25.7226C21.4327 25.0205 21.8594 24.2781 22.4943 23.707C22.6623 24.1236 22.6891 25.3195 23.7809 25.9175C22.9109 26.3811 22.2222 26.1627 21.9165 25.7226ZM26.9253 28.0204C25.4707 29.1156 24.8761 29.0283 24.5234 28.8368C24.2781 28.6811 24.0851 28.4554 23.9696 28.1889C23.854 27.9224 23.821 27.6273 23.875 27.3419C24.6465 27.0457 25.3371 26.5714 25.8906 25.9578C26.2266 25.8671 26.6263 25.7596 26.9488 25.6689C27.0595 26.4494 27.0515 27.2422 26.9253 28.0204ZM39.785 24.2579C39.6473 24.9029 37.0975 31.1547 36.8455 32.7706C36.6691 33.79 36.6566 34.8311 36.8086 35.8545C36.5432 36.2308 35.6563 37.1983 33.3719 37.6753C30.2544 37.9743 28.689 36.9396 28.091 36.3886C28.4305 35.823 28.5501 35.1522 28.4269 34.504C28.2724 33.8523 26.885 32.4212 27.577 30.6744C28.3798 28.7841 28.5769 26.6915 28.1414 24.6846C27.8903 23.6286 27.5532 22.595 27.1336 21.594C26.623 20.3208 26.5994 20.1226 26.9119 19.8336C27.6509 19.1618 29.1626 20.22 29.7875 21.1404C30.2007 21.7485 30.5232 22.8033 30.8356 23.8279C31.2354 25.1381 31.6116 26.3743 32.26 27.0765C33.6575 28.5915 35.0751 28.8065 35.1356 28.8133C35.31 28.8364 35.4864 28.7902 35.6271 28.6847C35.7678 28.5792 35.8615 28.4227 35.8881 28.2489C35.9151 28.0729 35.8712 27.8935 35.7661 27.7499C35.6609 27.6062 35.503 27.5103 35.3271 27.4829C34.9484 27.4001 34.5884 27.2475 34.2655 27.0328C35.0809 26.5071 35.7974 25.8418 36.3819 25.0676C36.4704 24.9382 36.5109 24.782 36.4964 24.626C36.4819 24.4699 36.4134 24.3239 36.3025 24.2131C36.1917 24.1022 36.0457 24.0336 35.8896 24.0191C35.7336 24.0046 35.5774 24.0451 35.448 24.1336C35.223 23.9623 34.9509 23.744 34.6989 23.5357L35.8041 23.2333C36.2132 23.1216 36.5814 22.8941 36.8644 22.5783C37.1475 22.2625 37.3334 21.8717 37.3998 21.4529C38.1826 21.9366 39.0493 22.3565 39.3281 22.6152C39.514 22.8424 39.6507 23.1057 39.7293 23.3885C39.808 23.6713 39.8269 23.9674 39.785 24.2579ZM8.94593 23.8851C9.02312 23.9279 9.108 23.9551 9.19571 23.9651C9.28342 23.9751 9.37225 23.9677 9.4571 23.9434C9.54196 23.9191 9.6212 23.8782 9.69027 23.8233C9.75935 23.7683 9.81691 23.7003 9.85968 23.623C11.5763 20.529 11.5763 17.7676 9.85968 14.6736C9.77326 14.5177 9.62843 14.4025 9.45707 14.3534C9.28571 14.3042 9.10185 14.3252 8.94593 14.4116C8.79001 14.498 8.67481 14.6429 8.62567 14.8142C8.57653 14.9856 8.59747 15.1694 8.6839 15.3254C10.1721 18.0129 10.1721 20.2905 8.6839 22.9713C8.64107 23.0485 8.61387 23.1334 8.60386 23.2211C8.59385 23.3088 8.60122 23.3976 8.62556 23.4825C8.64989 23.5673 8.69071 23.6466 8.74568 23.7156C8.80065 23.7847 8.8687 23.8423 8.94593 23.8851ZM6.38273 22.2759C6.53516 22.3673 6.71762 22.3946 6.89015 22.3518C7.06267 22.309 7.21119 22.1996 7.30319 22.0475C7.83848 21.1752 8.12181 20.1718 8.12181 19.1483C8.12181 18.1249 7.83848 17.1215 7.30319 16.2492C7.20612 16.1083 7.05897 16.0098 6.89175 15.9737C6.72453 15.9376 6.54984 15.9667 6.4033 16.0549C6.25676 16.1432 6.14941 16.284 6.10314 16.4487C6.05687 16.6134 6.07516 16.7896 6.15429 16.9412C6.55966 17.606 6.77411 18.3697 6.77411 19.1483C6.77411 19.927 6.55966 20.6906 6.15429 21.3554C6.06286 21.5079 6.03556 21.6903 6.07838 21.8629C6.12119 22.0354 6.23063 22.1839 6.38273 22.2759Z" fill="#111111"/>
<path d="M11.8418 25.175C11.921 25.2147 12.0072 25.2384 12.0955 25.2447C12.1838 25.251 12.2726 25.2398 12.3565 25.2117C12.4405 25.1836 12.5181 25.1392 12.5849 25.081C12.6516 25.0228 12.7062 24.952 12.7455 24.8726C14.7611 20.8615 14.7611 17.435 12.7455 13.4239C12.706 13.3449 12.6514 13.2745 12.5847 13.2167C12.518 13.1588 12.4405 13.1147 12.3568 13.0867C12.273 13.0588 12.1846 13.0477 12.0965 13.0539C12.0084 13.0602 11.9225 13.0837 11.8435 13.1232C11.7645 13.1627 11.6941 13.2174 11.6363 13.2841C11.5784 13.3508 11.5343 13.4282 11.5064 13.512C11.4784 13.5957 11.4673 13.6841 11.4736 13.7722C11.4798 13.8603 11.5034 13.9462 11.5428 14.0252C13.3603 17.6634 13.3603 20.6331 11.5428 24.2713C11.503 24.3502 11.4791 24.4363 11.4725 24.5245C11.466 24.6127 11.4769 24.7013 11.5047 24.7852C11.5325 24.8692 11.5766 24.9468 11.6344 25.0137C11.6923 25.0806 11.7627 25.1354 11.8418 25.175Z" fill="#111111"/>
<path d="M14.7143 26.4481C14.8734 26.5276 15.0575 26.5407 15.2262 26.4847C15.395 26.4287 15.5346 26.308 15.6146 26.1492C17.9393 21.4998 17.9393 16.7967 15.6146 12.1473C15.574 12.0685 15.5183 11.9986 15.4507 11.9413C15.383 11.8841 15.3048 11.8408 15.2204 11.8138C15.136 11.7868 15.0472 11.7767 14.9589 11.7841C14.8706 11.7914 14.7846 11.8161 14.7059 11.8567C14.6271 11.8973 14.5572 11.953 14.4999 12.0206C14.4427 12.0882 14.3994 12.1665 14.3724 12.2509C14.3454 12.3353 14.3353 12.4241 14.3427 12.5124C14.35 12.6007 14.3747 12.6867 14.4153 12.7654C16.5653 17.0721 16.5653 21.2579 14.4153 25.5646C14.3411 25.722 14.3307 25.9019 14.3865 26.0667C14.4423 26.2315 14.5598 26.3682 14.7143 26.4481Z" fill="#111111"/>
<path d="M19.4844 32.586C20.7418 32.5891 21.9983 32.5162 23.2469 32.3676C23.3351 32.3566 23.4203 32.3283 23.4976 32.2844C23.5749 32.2404 23.6428 32.1817 23.6974 32.1115C23.752 32.0413 23.7922 31.961 23.8158 31.8753C23.8393 31.7896 23.8458 31.7 23.8348 31.6118C23.8237 31.5235 23.7954 31.4383 23.7515 31.3611C23.7075 31.2838 23.6488 31.2159 23.5786 31.1613C23.5084 31.1067 23.4282 31.0665 23.3424 31.0429C23.2567 31.0193 23.1671 31.0129 23.0789 31.0239C21.8862 31.1691 20.6859 31.242 19.4844 31.2422C10.2192 31.2422 2.6875 25.8169 2.6875 19.1485C2.6875 13.7332 7.75008 8.93935 14.9963 7.49146C15.3322 7.42091 16.1048 7.24623 16.4475 7.1992C16.6257 7.17469 16.7869 7.08041 16.8955 6.93708C17.0042 6.79376 17.0515 6.61313 17.027 6.43494C17.0025 6.25675 16.9082 6.09558 16.7649 5.98691C16.6216 5.87823 16.4409 5.83094 16.2627 5.85545C15.8529 5.91255 15.1172 6.08388 14.7342 6.16115C6.84977 7.74677 1.34375 13.1016 1.34375 19.1485C1.34375 26.5593 9.4768 32.586 19.4844 32.586Z" fill="#111111"/>
</svg>
