<svg width="56" height="40" viewBox="0 0 56 40" fill="none" xmlns="http://www.w3.org/2000/svg">
<path d="M6.58789 0.823242H49.4121C52.5956 0.823428 55.1766 3.4044 55.1768 6.58789V32.9414C55.1766 36.1249 52.5956 38.7059 49.4121 38.7061H6.58789C3.40437 38.7059 0.823366 36.1249 0.823242 32.9414V6.58789C0.823427 3.4044 3.4044 0.823428 6.58789 0.823242Z" stroke="#E4E7EC" stroke-width="1.64706"/>
<path fill-rule="evenodd" clip-rule="evenodd" d="M18.0358 25.9546H14.6432L12.0993 15.9637C11.9785 15.5041 11.7221 15.0978 11.345 14.9063C10.4038 14.4251 9.36674 14.0421 8.23535 13.849V13.4643H13.7004C14.4547 13.4643 15.0204 14.0421 15.1147 14.7132L16.4346 21.9199L19.8255 13.4643H23.1237L18.0358 25.9546ZM25.0094 25.9546H21.8054L24.4437 13.4643H27.6476L25.0094 25.9546ZM31.7927 16.9245C31.887 16.2518 32.4527 15.8671 33.1127 15.8671C34.1498 15.7706 35.2795 15.9637 36.2224 16.4433L36.7881 13.7541C35.8452 13.3694 34.8081 13.1763 33.867 13.1763C30.7573 13.1763 28.4945 14.9064 28.4945 17.3075C28.4945 19.1341 30.0973 20.0933 31.2287 20.6711C32.4527 21.2472 32.9241 21.6319 32.8299 22.208C32.8299 23.0722 31.887 23.4569 30.9459 23.4569C29.8145 23.4569 28.6831 23.1688 27.6476 22.6876L27.0819 25.3784C28.2133 25.858 29.4373 26.0511 30.5687 26.0511C34.0555 26.1461 36.2224 24.4176 36.2224 21.8233C36.2224 18.5563 31.7927 18.3649 31.7927 16.9245ZM47.4354 25.9546L44.8914 13.4643H42.1589C41.5932 13.4643 41.0275 13.849 40.8389 14.4251L36.1281 25.9546H39.4263L40.0846 24.1296H44.1371L44.5143 25.9546H47.4354ZM42.6303 16.8279L43.5714 21.5353H40.9332L42.6303 16.8279Z" fill="#172B85"/>
</svg>
