<svg width="15" height="18" viewBox="0 0 15 18" fill="none" xmlns="http://www.w3.org/2000/svg">
<path fill-rule="evenodd" clip-rule="evenodd" d="M3.91132 15.7596L4.10596 16.1036C4.28505 16.4222 4.17186 16.8294 3.85513 17.0083L3.12832 17.4203C2.80972 17.5994 2.40235 17.4862 2.22337 17.1693L0.0860686 13.3928C-0.0946726 13.0739 0.0189392 12.667 0.336127 12.4878L1.06379 12.0759C1.3808 11.8968 1.7877 12.0092 1.96823 12.3263L2.12423 12.6019L4.0059 11.5124C4.58445 11.1779 5.17587 10.9612 5.8113 11.1676C6.42246 11.3657 7.42019 11.7931 8.43846 11.9771C8.45092 11.9793 8.4632 11.9824 8.47523 11.9863C9.00239 12.157 9.32233 12.6902 9.1784 13.2256C9.16218 13.2864 9.14117 13.3459 9.11554 13.4035C9.20874 13.3726 9.29843 13.3319 9.38314 13.2823L11.9747 11.7729C12.9235 11.2201 13.5566 11.284 13.9146 11.5242C14.2258 11.733 14.3706 12.0893 14.3612 12.4392C14.3518 12.793 14.1825 13.1306 13.9051 13.3015L9.20257 16.1968C8.70189 16.5058 8.15346 16.5784 7.58529 16.4268L4.28677 15.5428L3.91132 15.7596ZM3.61417 16.3812L1.47747 12.6056C1.45029 12.558 1.38937 12.5406 1.34176 12.5675L0.614316 12.9793C0.567057 13.006 0.550433 13.0668 0.577363 13.1143L2.71481 16.8912C2.74163 16.9387 2.8028 16.9553 2.85055 16.9286L3.57666 16.517C3.62416 16.4902 3.64096 16.4289 3.61417 16.3812ZM3.63316 15.2682L4.10568 14.9953C4.13779 14.9768 4.17324 14.9647 4.21001 14.9599C4.24678 14.955 4.28413 14.9575 4.31995 14.9671L7.73092 15.8813C8.14361 15.9913 8.54229 15.9407 8.90596 15.7162L13.6089 12.8207C13.7337 12.7438 13.7925 12.5833 13.7967 12.4242C13.809 11.9629 13.3461 11.6275 12.2589 12.2609L9.66747 13.7702C9.24676 14.0153 8.80583 14.0833 8.32527 14.0068L7.99089 13.9521C7.40558 13.832 6.86272 13.6552 6.26032 13.4933C6.10982 13.4528 6.02046 13.2978 6.0609 13.1473C6.10135 12.9968 6.25636 12.9075 6.40686 12.948C6.9939 13.1057 7.52307 13.2787 8.09289 13.3966C8.36762 13.4266 8.56979 13.3145 8.633 13.079C8.69692 12.8415 8.54759 12.6116 8.31719 12.529C7.27799 12.3379 6.26092 11.907 5.63702 11.7047C5.15977 11.5497 4.72315 11.75 4.28865 12.0013L2.40239 13.0934L3.63316 15.2682ZM1.22628 12.9905C1.39125 12.966 1.54442 13.0799 1.56899 13.2448C1.59253 13.4098 1.47863 13.564 1.31367 13.5875C1.14874 13.6121 0.995563 13.4972 0.970998 13.3322C0.947422 13.1672 1.06135 13.0141 1.22628 12.9905ZM11.2655 3.96776C12.0966 4.88358 12.7123 5.67674 13.1155 6.38485C14.6498 9.07902 12.4905 11.8292 9.5684 11.7831C6.64594 11.8294 4.4865 9.07913 6.01989 6.38488C6.42394 5.67674 7.03989 4.88336 7.8704 3.96752C7.64222 3.81741 7.49078 3.55892 7.49078 3.26622C7.49078 2.8812 7.7541 2.55462 8.10952 2.45774L7.65295 2.00114C7.32009 1.66969 7.3197 1.12627 7.65253 0.793447C7.93347 0.512506 8.3799 0.464188 8.71647 0.678635C8.71957 0.680647 8.72377 0.681988 8.7272 0.680576L8.73159 0.677616L8.73405 0.672918C8.81688 0.2898 9.16061 0 9.56815 0C9.96729 0 10.3165 0.282071 10.402 0.671718L10.4023 0.672918L10.4047 0.677627L10.4091 0.680576C10.4126 0.681988 10.416 0.681071 10.419 0.679165C10.7491 0.467294 11.1958 0.505518 11.4838 0.793447C11.815 1.12602 11.815 1.66948 11.4838 2.00075L11.0268 2.45774C11.3822 2.55462 11.6456 2.8812 11.6456 3.26622C11.6456 3.55909 11.4939 3.81773 11.2655 3.96776ZM8.51056 4.10481C7.6011 5.08666 6.93376 5.92278 6.51059 6.66434C5.20919 8.95122 7.08214 11.2601 9.56342 11.2184C9.56659 11.2183 9.56975 11.2183 9.57292 11.2184C12.0542 11.2601 13.9272 8.95115 12.6248 6.66427C12.2025 5.92274 11.5352 5.08666 10.6249 4.10481H8.51056ZM8.87893 2.42852H10.2574L11.0845 1.60144C11.1967 1.48924 11.1963 1.30528 11.0842 1.19255C10.9868 1.09528 10.8357 1.08272 10.7241 1.15436C10.56 1.25961 10.3725 1.27694 10.1923 1.20201C10.0125 1.12726 9.89166 0.982976 9.85026 0.791965C9.82093 0.660318 9.70315 0.564706 9.56815 0.564706C9.43036 0.564706 9.3141 0.662435 9.28615 0.791576C9.24514 0.982412 9.12415 1.12708 8.94401 1.20201C8.76383 1.27694 8.57646 1.25968 8.41305 1.15489C8.2988 1.08212 8.14717 1.0974 8.05185 1.19276C7.93933 1.30528 7.9389 1.48899 8.05142 1.60105L8.87893 2.42852ZM10.8079 2.99322H8.32845C8.17834 2.99322 8.05548 3.11608 8.05548 3.26622C8.05548 3.41689 8.1782 3.54011 8.32845 3.54011H10.8079C10.9581 3.54011 11.0809 3.41689 11.0809 3.26622C11.0809 3.11608 10.958 2.99322 10.8079 2.99322Z" fill="#283C47"/>
</svg>
